<?xml version="1.0" encoding="UTF-8" standalone="no"?>
<!-- Created with Inkscape (http://www.inkscape.org/) -->

<svg
   xmlns:dc="http://purl.org/dc/elements/1.1/"
   xmlns:cc="http://creativecommons.org/ns#"
   xmlns:rdf="http://www.w3.org/1999/02/22-rdf-syntax-ns#"
   xmlns:svg="http://www.w3.org/2000/svg"
   xmlns="http://www.w3.org/2000/svg"
   xmlns:sodipodi="http://sodipodi.sourceforge.net/DTD/sodipodi-0.dtd"
   xmlns:inkscape="http://www.inkscape.org/namespaces/inkscape"
   width="60"
   height="60"
   id="svg3209"
   version="1.1"
   inkscape:version="0.91 r13725"
   sodipodi:docname="clyde-flipped.svg">
  <title
     id="title3238">Clyde</title>
  <defs
     id="defs3211" />
  <sodipodi:namedview
     id="base"
     pagecolor="#ffffff"
     bordercolor="#666666"
     borderopacity="1.0"
     inkscape:pageopacity="0.0"
     inkscape:pageshadow="2"
     inkscape:zoom="1.4"
     inkscape:cx="56.727193"
     inkscape:cy="-67.066627"
     inkscape:document-units="px"
     inkscape:current-layer="g3048"
     showgrid="false"
     fit-margin-top="0"
     fit-margin-left="0"
     fit-margin-right="0"
     fit-margin-bottom="0"
     inkscape:window-width="1280"
     inkscape:window-height="751"
     inkscape:window-x="0"
     inkscape:window-y="1"
     inkscape:window-maximized="1" />
  <metadata
     id="metadata3214">
    <rdf:RDF>
      <cc:Work
         rdf:about="">
        <dc:format>image/svg+xml</dc:format>
        <dc:type
           rdf:resource="http://purl.org/dc/dcmitype/StillImage" />
        <dc:title>Clyde</dc:title>
      </cc:Work>
    </rdf:RDF>
  </metadata>
  <g
     inkscape:label="Ebene 1"
     inkscape:groupmode="layer"
     id="layer1"
     transform="translate(-620.1475,-462.09155)">
    <g
       id="g3048"
       inkscape:label="#blinky"
       transform="translate(169.6996,-110.9135)"
       inkscape:export-xdpi="90"
       inkscape:export-ydpi="90">
      <title
         id="title3056">Blinky</title>
      <path
         inkscape:label="#Blinky"
         style="fill:#ff9955"
         d="m 506.93321,630.78254 c 1.18487,-1.71697 1.5293,-4.9583 1.51422,-14.25 -0.0354,-21.77874 -2.15782,-29.87068 -9.63284,-36.72501 -5.10687,-4.68283 -9.92147,-6.27246 -18.96347,-6.26115 -6.27928,0.008 -8.33177,0.47101 -13.22374,2.98399 -10.93786,5.61871 -13.36327,12.02522 -14.01795,37.02721 -0.3686,14.07623 -0.26593,15.17032 1.58288,16.86853 2.58749,2.3767 5.4558,1.59732 10.6141,-2.8841 2.23915,-1.94533 4.46494,-3.53696 4.94618,-3.53696 0.48124,0 2.60672,1.8 4.72327,4 2.11655,2.2 4.59675,4 5.51154,4 0.9148,0 3.80939,-1.8 6.43243,-4 5.30346,-4.44815 6.41289,-4.75708 8.37931,-2.33328 1.65548,2.04055 8.7421,7.33328 9.81877,7.33328 0.42986,0 1.47174,-1.00013 2.3153,-2.22251 z M 478.5984,605.88801 c -1.18362,-0.61437 -2.85717,-2.01574 -3.71898,-3.11415 -1.5529,-1.97921 -1.58966,-1.97404 -4.10246,0.57638 -3.48825,3.54047 -7.09612,4.28434 -11.1838,2.30588 -3.93943,-1.90671 -4.6071,-5.32912 -1.13767,-5.83152 2.43424,-0.35249 3.62991,-3.59046 1.56076,-4.22664 -4.77282,-1.46744 -4.85125,-1.53759 -3.84764,-3.44092 1.34578,-2.55226 6.37389,-4.52241 9.50573,-3.7246 1.4119,0.35967 3.67815,1.78163 5.03611,3.15992 l 2.46902,2.50598 2.28841,-2.5062 c 4.48209,-4.90867 11.93668,-4.15202 14.81843,1.5041 1.7494,3.43363 1.76377,5.67231 0.0564,8.79874 -2.41097,4.41505 -7.55919,6.16541 -11.7444,3.99303 z m 0.92193,-7.33507 c 0.76397,-2.02068 -0.37222,-3.54789 -2.6395,-3.54789 -1.383,0 -1.91235,0.692 -1.91235,2.5 0,1.84621 0.52341,2.5 2.00143,2.5 1.10078,0 2.24846,-0.65345 2.55042,-1.45211 z"
         id="Blinky"
         inkscape:connector-curvature="0">
        <title
           id="title3046">Blinky</title>
      </path>
      <ellipse
         transform="scale(-1,1)"
         id="path3004"
         style="fill:#ffffff;fill-opacity:1"
         cx="-464.08173"
         cy="597.59302"
         rx="9.8524914"
         ry="9.6428566" />
      <ellipse
         transform="scale(-1,1)"
         id="path3004-1"
         style="fill:#ffffff;fill-opacity:1"
         cx="-482.02731"
         cy="597.36218"
         rx="9.8524914"
         ry="9.6428566" />
      <ellipse
         transform="scale(-1,1)"
         id="path3026"
         style="fill:#0000ff;fill-opacity:1"
         cx="-477.91934"
         cy="597.33923"
         rx="4.9262457"
         ry="5" />
      <ellipse
         transform="scale(-1,1)"
         id="path3026-7"
         style="fill:#0000ff;fill-opacity:1"
         cx="-459.2084"
         cy="597.03595"
         rx="4.9262457"
         ry="5" />
    </g>
  </g>
</svg>
